# xmcd
#
# Track frame offsets:
#	150
#	18042
#	36516
#	63128
#	77776
#	102615
#	117833
#	136642
#	164365
#	181886
#	201756
#	214741
#	231802
#	255794
#
# Disc length: 3751 seconds
#
# Revision: 1
# Processed by: cddbd v1.5.2PL0 Copyright (c) Steve Scherf et al.
# Submitted via: audiograbber 1.83.01
#
DISCID=b00ea50e
DTITLE=Eric Clapton - Clapton
DYEAR=1900
DGENRE=
TTITLE0=Travelin' Alone
TTITLE1=Rocking Chair
TTITLE2=River Runs Deep
TTITLE3=Judgement Day
TTITLE4=How Deep Is the Ocean
TTITLE5=My Very Good Friend the Milkman
TTITLE6=Can't Hold Out Much Longer
TTITLE7=That's No Way to Get Along
TTITLE8=Everything Will Be Alright
TTITLE9=Diamonds Made From Rain
TTITLE10=When Somebody Thinks You're Wonderful
TTITLE11=Hard Times Blues
TTITLE12=Run Back to Your Side
TTITLE13=Autumn Leaves
EXTD=
EXTT0=
EXTT1=
EXTT2=
EXTT3=
EXTT4=
EXTT5=
EXTT6=
EXTT7=
EXTT8=
EXTT9=
EXTT10=
EXTT11=
EXTT12=
EXTT13=
PLAYORDER=
